<svg width="417" height="116" viewBox="0 0 417 116" fill="none" xmlns="http://www.w3.org/2000/svg">
<path d="M16 99.8003H416.283V106.2H16V99.8003Z" fill="#E2E8F0"/>
<path d="M359.835 14.04H412.955V29.4H382.875V42.712H408.219V56.536H382.875V71.384H412.827V87H359.835V14.04Z" fill="#E2E8F0"/>
<path d="M302.792 33.7522C302.792 35.5442 303.688 36.9522 305.48 37.9762C307.357 39.0002 310.259 40.1095 314.184 41.3042C318.877 42.8402 322.717 44.3335 325.704 45.7842C328.776 47.2348 331.421 49.4962 333.64 52.5682C335.944 55.6402 337.096 59.6508 337.096 64.6002C337.096 80.4722 326.771 88.4082 306.12 88.4082C302.707 88.4082 298.525 88.1095 293.576 87.5122C288.712 86.9149 284.275 86.1468 280.264 85.2082C280.435 83.4162 280.776 80.8135 281.288 77.4002C281.885 73.9015 282.44 71.2988 282.952 69.5922C285.939 70.0188 290.419 70.5308 296.392 71.1282C302.451 71.7255 307.016 72.0242 310.088 72.0242C311.88 72.0242 312.947 71.8962 313.288 71.6402C313.8 71.2988 314.184 70.7442 314.44 69.9762C314.781 69.1228 314.952 68.3975 314.952 67.8002C314.952 66.0935 314.141 64.8135 312.52 63.9602C310.899 63.0215 308.125 61.9122 304.2 60.6322C299.507 59.1815 295.624 57.6882 292.552 56.1522C289.48 54.6162 286.792 52.2268 284.488 48.9842C282.184 45.7415 281.032 41.4748 281.032 36.1842C281.032 32.4295 281.885 28.7602 283.592 25.1762C285.299 21.5068 287.048 19.0322 288.84 17.7522C290.205 16.8135 293.021 15.9175 297.288 15.0642C301.555 14.2108 305.565 13.7842 309.32 13.7842C318.877 13.7842 326.685 14.6802 332.744 16.4722C332.659 18.1788 332.36 20.5255 331.848 23.5122C331.421 26.4988 330.952 29.2295 330.44 31.7042L327.496 31.5762C316.403 30.8082 309.32 30.4242 306.248 30.4242C304.968 30.4242 304.243 30.4669 304.072 30.5522C303.731 30.7229 303.432 31.1068 303.176 31.7042C302.92 32.3015 302.792 32.9842 302.792 33.7522Z" fill="#E2E8F0"/>
<path d="M235.115 71H213.867L210.027 87H186.475L210.027 14.04H240.107L262.635 87H238.955L235.115 71ZM224.363 29.784L216.811 56.792H232.043L224.875 29.784H224.363Z" fill="#E2E8F0"/>
<path d="M100.953 14.04H124.121V40.792H143.961V14.04H167.129V87H143.961V55.512H124.121V87H100.953V14.04Z" fill="#E2E8F0"/>
<path d="M79.616 84.568C76.4587 85.9334 72.7893 86.9147 68.608 87.512C64.4267 88.1094 60.544 88.408 56.96 88.408C45.3547 88.408 36.2667 85.3787 29.696 79.32C23.1253 73.2614 19.84 63.96 19.84 51.416C19.84 38.616 23.296 29.0587 30.208 22.744C37.12 16.344 46.848 13.144 59.392 13.144C65.3653 13.144 71.5947 13.9547 78.08 15.576C78.08 17.2827 77.9093 19.8427 77.568 23.256C77.2267 26.584 76.8853 28.9307 76.544 30.296H68.48C62.592 30.296 57.9413 30.424 54.528 30.68C51.2 30.8507 49.1947 31.2347 48.512 31.832C47.232 33.0267 46.2507 35.4587 45.568 39.128C44.8853 42.712 44.544 46.168 44.544 49.496C44.544 55.2987 45.2693 59.7787 46.72 62.936C48.1707 66.008 50.0053 68.056 52.224 69.08C54.3573 70.104 57.8987 70.616 62.848 70.616C66.7733 70.616 71.8933 70.2747 78.208 69.592L79.616 84.568Z" fill="#E2E8F0"/>
<path d="M0 0H90V116H0V0Z" fill="#E2E8F0" style="mix-blend-mode:exclusion"/>
</svg>
